PathFileType	4	(X/Y/Z)	C:/Users/beibeiliu/ov580/test_trc/User1\sequence.26_training_dense_right.trc
DataRate	CameraRate	NumFrames	NumMarkers	Units	OrigDataRate	OrigDataStartFrame	OrigNumFrames
120	120	10	19	mm	120	124	330
Frame#	Time	ThumbCMC			ThumbMCP			ThumbIP			ThumbTip			IndexMCP			IndexPIP			IndexTip			MiddleMCP			MiddlePIP			MiddleTip			RingMCP			RingPIP			RingTip			PinkyMCP			PinkyPIP			PinkyTip			BackHand1			BackHand2			BackHand3	
		X0	Y0	Z0	X1	Y1	Z1	X2	Y2	Z2	X3	Y3	Z3	X4	Y4	Z4	X5	Y5	Z5	X6	Y6	Z6	X7	Y7	Z7	X8	Y8	Z8	X9	Y9	Z9	X10	Y10	Z10	X11	Y11	Z11	X12	Y12	Z12	X13	Y13	Z13	X14	Y14	Z14	X15	Y15	Z15	X16	Y16	Z16	X17	Y17	Z17	X18	Y18	Z18	
123	1.025	118.809	-25.7447	48.0809	112.626	-46.4436	8.70898	126.557	-56.0709	-11.9074	147.413	-72.7995	-30.431	157.939	7.31301	-21.0079	165.584	10.8467	-44.1585	181.302	12.3249	-69.0309	185.442	-0.222595	-22.5969	191.753	4.24861	-51.0304	199.598	6.88611	-78.5651	191.348	-34.761	-26.5582	172.284	-60.3859	-35.9206	157.713	-68.8361	-8.41479	197.404	-59.5528	-3.48792	169.82	-77.0663	-3.28242	152.22	-67.8947	21.7334	192.833	-19.9718	38.1366	185.202	-23.2447	74.6409	156.297	-4.1165	52.1503	
124	1.03333	120.114	-26.6162	47.0945	110.893	-46.214	13.7711	122.007	-57.7061	-13.5802	141.53	-70.8219	-28.6492	156.591	6.8761	-22.8294	164.333	9.0564	-45.4426	174.82	11.3179	-67.9133	180.842	2.21365	-25.6891	190.053	2.49066	-47.7439	199.507	5.00604	-79.1922	189.685	-37.3192	-24.2401	171.747	-62.9996	-35.8795	151.719	-69.3268	-7.93306	193.029	-63.2453	-5.37656	167.114	-77.2386	-3.11213	150.163	-66.5778	19.4139	187.899	-20.5269	36.4542	180.205	-22.9281	74.1773	153.421	-3.60237	51.4256	
125	1.04167	116.641	-26.4474	49.6426	107.105	-47.3184	13.0464	116.085	-57.7273	-10.996	133.011	-70.7916	-32.0469	152.217	5.96415	-18.3115	158.838	9.63822	-42.8343	172.096	10.7468	-68.7431	180.482	-0.706769	-21.8163	184.47	5.61161	-51.8624	196.323	3.97392	-81.0259	183.358	-35.2179	-24.6689	166.698	-64.6789	-33.9536	149.15	-70.2084	-10.0042	188.206	-58.214	-2.91053	166.262	-75.0363	-6.44845	146.804	-67.8535	18.2445	189.216	-19.9915	37.7658	181.101	-25.2453	72.7795	152.106	-4.42868	51.26	
126	1.05	115.223	-27.275	49.5449	104.871	-47.0356	16.9683	110.617	-56.8625	-11.2838	124.343	-70.0378	-28.9754	147.735	6.44392	-17.8536	159.501	8.00067	-44.5756	171.383	8.02024	-66.1818	178.46	-0.712043	-23.5069	183.725	1.95113	-50.2853	192.996	0.826281	-77.7	183.294	-38.2722	-24.6381	164.045	-62.4171	-34.2416	147.971	-72.7323	-5.05784	187.014	-60.9542	-2.02764	162.817	-79.284	-2.29716	142.952	-67.5683	21.2694	183.502	-18.9566	38.0418	181.012	-25.7435	74.7058	151.319	-2.81712	52.0695	
127	1.05833	111.371	-26.6453	49.8923	105.31	-46.1694	15.9615	108.043	-57.2224	-8.82893	120.644	-69.3031	-30.8564	148.475	4.04753	-18.3107	153.061	10.0388	-44.8379	165.019	10.438	-68.3818	171.732	0.169556	-22.3358	180.782	0.621675	-51.3035	188.271	1.81853	-80.3102	176.637	-35.6956	-23.5732	158.774	-65.5901	-32.5648	145.704	-73.0181	-5.61009	182.552	-64.2371	-5.20808	156.368	-77.6543	-0.225336	139.549	-68.765	24.4832	182.063	-21.3689	37.2243	173.426	-26.2364	76.73	149	-7.48963	55.1884	
128	1.06667	105.263	-27.5602	52.1315	99.5194	-47.5752	19.4511	106.822	-56.7884	-9.19236	119.369	-69.8287	-33.9162	142.542	5.71926	-18.7166	151.118	6.46438	-40.5518	161.105	7.25202	-65.2699	167.706	-1.58248	-19.7742	174.25	2.87149	-51.1229	183.183	1.85422	-81.3853	172.799	-35.6803	-25.2199	154.638	-63.9447	-33.3929	139.305	-70.8354	-3.89469	179.803	-64.2848	-3.93432	155.047	-75.8457	-3.66892	137.973	-66.371	19.9467	178.338	-21.3524	36.2624	174.775	-24.8344	74.9304	145.122	-7.56745	55.8808	
129	1.075	106.498	-28.6903	50.2335	97.7565	-46.6838	16.2284	102.734	-56.6932	-11.3704	117.293	-70.4007	-31.9683	142.787	4.06471	-20.2657	146.351	7.99743	-41.9297	157.862	6.69407	-66.4341	165.24	0.0237921	-24.0462	173.219	0.475432	-51.3065	177.462	1.65351	-82.4615	170.174	-36.0235	-23.0885	154.939	-62.6206	-34.5665	137.629	-72.352	-3.31949	176.13	-58.7058	-2.23313	151.256	-79.2635	1.0262	136.247	-68.888	26.0586	174.321	-20.9913	37.9634	168.114	-26.055	76.02	141.246	-5.34919	54.6427	
130	1.08333	104.436	-28.4373	53.3974	93.7527	-46.5218	14.1242	104.788	-55.2419	-11.8369	120.49	-68.9862	-29.0233	138.114	4.22132	-17.392	142.201	7.97761	-42.1176	156.391	5.20056	-65.6982	165.759	-3.18362	-24.2908	168.846	-0.135987	-52.8855	174.233	-0.497479	-79.4071	168.358	-38.1182	-23.2464	148.796	-64.0155	-32.575	133.108	-71.8268	-1.9884	170.614	-60.4046	-3.98108	150.368	-78.4877	-1.47064	130.834	-67.2015	26.0877	170.756	-19.3075	37.6892	170.563	-28.0596	74.5983	140.594	-7.01494	53.5892	
131	1.09167	103.229	-27.3246	51.4118	91.3215	-46.8218	19.264	101.128	-56.0508	-12.5554	118.51	-68.5703	-28.2408	131.731	6.06373	-15.2644	140.558	8.77251	-40.2849	148.259	7.73688	-66.5135	160.427	-3.42231	-19.4457	165.756	0.40512	-53.0967	174.466	-1.28025	-81.2113	165.72	-36.7874	-20.8788	146.435	-62.6925	-33.1255	132.697	-71.1725	-1.30159	170.276	-60.4887	-3.77497	144.789	-76.6923	0.462543	128.781	-68.9107	25.5329	167.753	-20.9045	39.8143	168.326	-24.036	71.6118	139.372	-5.40766	52.2927	
132	1.1	96.2159	-27.9761	56.1102	87.665	-45.9875	19.0124	99.4736	-53.6987	-12.3149	120.285	-65.814	-24.6849	133.277	3.23591	-13.8597	140.636	6.72543	-39.8944	146.833	9.73296	-69.8582	155.203	0.315261	-19.4693	163.363	1.32827	-51.4538	169.647	-0.708635	-77.5569	162.765	-35.5163	-22.0886	145.36	-59.569	-34.3841	128.593	-68.2719	-3.3895	170.199	-58.4961	-1.59859	141.971	-75.0219	-0.123366	128.939	-64.8152	23.1163	168.932	-19.7004	40.8766	167.148	-26.9707	75.684	135.741	-4.39101	58.176	
